<svg xmlns="http://www.w3.org/2000/svg" xmlns:xlink="http://www.w3.org/1999/xlink" width="500" zoomAndPan="magnify" viewBox="0 0 375 374.999991" height="500" preserveAspectRatio="xMidYMid meet" version="1.0"><defs><g/><clipPath id="989beafba8"><path d="M 40.667969 217.339844 L 192 217.339844 L 192 220 L 40.667969 220 Z M 40.667969 217.339844 " clip-rule="nonzero"/></clipPath><clipPath id="0fdb794783"><path d="M 40.667969 221 L 192 221 L 192 223 L 40.667969 223 Z M 40.667969 221 " clip-rule="nonzero"/></clipPath><clipPath id="61d92fc89d"><path d="M 40.667969 225 L 192 225 L 192 227 L 40.667969 227 Z M 40.667969 225 " clip-rule="nonzero"/></clipPath><clipPath id="ace6166300"><path d="M 210.226562 150.988281 L 247 150.988281 L 247 223.738281 L 210.226562 223.738281 Z M 210.226562 150.988281 " clip-rule="nonzero"/></clipPath><clipPath id="c50038b440"><path d="M 255 150.988281 L 293 150.988281 L 293 223.738281 L 255 223.738281 Z M 255 150.988281 " clip-rule="nonzero"/></clipPath><clipPath id="90f3c1d613"><path d="M 300 150.988281 L 337.726562 150.988281 L 337.726562 223.738281 L 300 223.738281 Z M 300 150.988281 " clip-rule="nonzero"/></clipPath></defs><rect x="-37.5" width="450" fill="#ffffff" y="-37.499999" height="449.999989" fill-opacity="1"/><rect x="-37.5" width="450" fill="#004983" y="-37.499999" height="449.999989" fill-opacity="1"/><g fill="#ffffff" fill-opacity="1"><g transform="translate(41.121096, 212.686011)"><g><path d="M 10.3125 -44 C 15.53125 -48.945312 21.96875 -51.421875 29.625 -51.421875 C 37.28125 -51.421875 43.71875 -48.945312 48.9375 -44 C 54.15625 -39.050781 56.765625 -32.914062 56.765625 -25.59375 C 56.765625 -18.28125 54.15625 -12.125 48.9375 -7.125 C 43.71875 -2.132812 37.28125 0.359375 29.625 0.359375 C 21.96875 0.359375 15.53125 -2.132812 10.3125 -7.125 C 5.09375 -12.125 2.484375 -18.28125 2.484375 -25.59375 C 2.484375 -32.914062 5.09375 -39.050781 10.3125 -44 Z M 29.703125 -43.671875 C 24.628906 -43.671875 20.285156 -41.925781 16.671875 -38.4375 C 13.066406 -34.957031 11.265625 -30.679688 11.265625 -25.609375 C 11.265625 -20.535156 13.082031 -16.226562 16.71875 -12.6875 C 20.351562 -9.15625 24.679688 -7.390625 29.703125 -7.390625 C 34.722656 -7.390625 39.015625 -9.15625 42.578125 -12.6875 C 46.140625 -16.226562 47.921875 -20.535156 47.921875 -25.609375 C 47.921875 -30.679688 46.140625 -34.957031 42.578125 -38.4375 C 39.015625 -41.925781 34.722656 -43.671875 29.703125 -43.671875 Z M 29.703125 -43.671875 "/></g></g></g><g fill="#ffffff" fill-opacity="1"><g transform="translate(100.371366, 212.686011)"><g><path d="M 23.5625 -51.578125 C 30.1875 -51.578125 36.160156 -49.820312 41.484375 -46.3125 L 37.890625 -38.703125 C 32.671875 -41.867188 27.671875 -43.453125 22.890625 -43.453125 C 20.304688 -43.453125 18.269531 -42.988281 16.78125 -42.0625 C 15.300781 -41.132812 14.5625 -39.816406 14.5625 -38.109375 C 14.5625 -36.398438 15.242188 -34.945312 16.609375 -33.75 C 17.972656 -32.5625 19.675781 -31.6875 21.71875 -31.125 C 23.769531 -30.5625 25.988281 -29.851562 28.375 -29 C 30.769531 -28.144531 32.988281 -27.242188 35.03125 -26.296875 C 37.082031 -25.347656 38.78125 -23.859375 40.125 -21.828125 C 41.46875 -19.804688 42.140625 -17.359375 42.140625 -14.484375 C 42.140625 -9.992188 40.347656 -6.40625 36.765625 -3.71875 C 33.179688 -1.039062 28.535156 0.296875 22.828125 0.296875 C 18.921875 0.296875 15.140625 -0.429688 11.484375 -1.890625 C 7.828125 -3.359375 4.632812 -5.335938 1.90625 -7.828125 L 5.640625 -15.296875 C 8.222656 -12.898438 11.0625 -11.054688 14.15625 -9.765625 C 17.25 -8.472656 20.1875 -7.828125 22.96875 -7.828125 C 25.988281 -7.828125 28.335938 -8.375 30.015625 -9.46875 C 31.703125 -10.570312 32.546875 -12.097656 32.546875 -14.046875 C 32.546875 -15.796875 31.863281 -17.269531 30.5 -18.46875 C 29.132812 -19.664062 27.425781 -20.546875 25.375 -21.109375 C 23.332031 -21.671875 21.113281 -22.351562 18.71875 -23.15625 C 16.332031 -23.957031 14.113281 -24.804688 12.0625 -25.703125 C 10.019531 -26.609375 8.316406 -28.0625 6.953125 -30.0625 C 5.585938 -32.0625 4.90625 -34.476562 4.90625 -37.3125 C 4.90625 -41.65625 6.609375 -45.117188 10.015625 -47.703125 C 13.429688 -50.285156 17.945312 -51.578125 23.5625 -51.578125 Z M 23.5625 -51.578125 "/></g></g></g><g fill="#ffffff" fill-opacity="1"><g transform="translate(145.869719, 212.686011)"><g><path d="M 23.5625 -51.578125 C 30.1875 -51.578125 36.160156 -49.820312 41.484375 -46.3125 L 37.890625 -38.703125 C 32.671875 -41.867188 27.671875 -43.453125 22.890625 -43.453125 C 20.304688 -43.453125 18.269531 -42.988281 16.78125 -42.0625 C 15.300781 -41.132812 14.5625 -39.816406 14.5625 -38.109375 C 14.5625 -36.398438 15.242188 -34.945312 16.609375 -33.75 C 17.972656 -32.5625 19.675781 -31.6875 21.71875 -31.125 C 23.769531 -30.5625 25.988281 -29.851562 28.375 -29 C 30.769531 -28.144531 32.988281 -27.242188 35.03125 -26.296875 C 37.082031 -25.347656 38.78125 -23.859375 40.125 -21.828125 C 41.46875 -19.804688 42.140625 -17.359375 42.140625 -14.484375 C 42.140625 -9.992188 40.347656 -6.40625 36.765625 -3.71875 C 33.179688 -1.039062 28.535156 0.296875 22.828125 0.296875 C 18.921875 0.296875 15.140625 -0.429688 11.484375 -1.890625 C 7.828125 -3.359375 4.632812 -5.335938 1.90625 -7.828125 L 5.640625 -15.296875 C 8.222656 -12.898438 11.0625 -11.054688 14.15625 -9.765625 C 17.25 -8.472656 20.1875 -7.828125 22.96875 -7.828125 C 25.988281 -7.828125 28.335938 -8.375 30.015625 -9.46875 C 31.703125 -10.570312 32.546875 -12.097656 32.546875 -14.046875 C 32.546875 -15.796875 31.863281 -17.269531 30.5 -18.46875 C 29.132812 -19.664062 27.425781 -20.546875 25.375 -21.109375 C 23.332031 -21.671875 21.113281 -22.351562 18.71875 -23.15625 C 16.332031 -23.957031 14.113281 -24.804688 12.0625 -25.703125 C 10.019531 -26.609375 8.316406 -28.0625 6.953125 -30.0625 C 5.585938 -32.0625 4.90625 -34.476562 4.90625 -37.3125 C 4.90625 -41.65625 6.609375 -45.117188 10.015625 -47.703125 C 13.429688 -50.285156 17.945312 -51.578125 23.5625 -51.578125 Z M 23.5625 -51.578125 "/></g></g></g><g clip-path="url(#989beafba8)"><path fill="#ffffff" d="M 40.667969 217.441406 L 191.839844 217.441406 L 191.839844 219.019531 L 40.667969 219.019531 Z M 40.667969 217.441406 " fill-opacity="1" fill-rule="nonzero"/></g><g clip-path="url(#0fdb794783)"><path fill="#ffffff" d="M 40.667969 221.394531 L 191.839844 221.394531 L 191.839844 222.972656 L 40.667969 222.972656 Z M 40.667969 221.394531 " fill-opacity="1" fill-rule="nonzero"/></g><g clip-path="url(#61d92fc89d)"><path fill="#ffffff" d="M 40.667969 225.316406 L 191.839844 225.316406 L 191.839844 226.894531 L 40.667969 226.894531 Z M 40.667969 225.316406 " fill-opacity="1" fill-rule="nonzero"/></g><g clip-path="url(#ace6166300)"><path fill="#61ce70" d="M 210.226562 224 L 246.730469 187.5 L 210.226562 150.996094 Z M 212.839844 157.332031 L 243.007812 187.5 L 212.839844 217.667969 Z M 212.839844 157.332031 " fill-opacity="1" fill-rule="nonzero"/></g><g clip-path="url(#c50038b440)"><path fill="#61ce70" d="M 255.609375 224 L 292.113281 187.5 L 255.609375 150.996094 Z M 258.222656 157.332031 L 288.390625 187.5 L 258.222656 217.667969 Z M 258.222656 157.332031 " fill-opacity="1" fill-rule="nonzero"/></g><g clip-path="url(#90f3c1d613)"><path fill="#61ce70" d="M 300.992188 150.996094 L 300.992188 223.933594 L 337.492188 187.433594 Z M 303.605469 157.332031 L 333.773438 187.5 L 303.605469 217.667969 Z M 303.605469 157.332031 " fill-opacity="1" fill-rule="nonzero"/></g></svg>